<?xml version="1.0" standalone="no"?>
<!DOCTYPE svg PUBLIC "-//W3C//DTD SVG 20010904//EN"
 "http://www.w3.org/TR/2001/REC-SVG-20010904/DTD/svg10.dtd">
<svg version="1.0" xmlns="http://www.w3.org/2000/svg"
 width="512.000000pt" height="512.000000pt" viewBox="0 0 512.000000 512.000000"
 preserveAspectRatio="xMidYMid meet" fill="#FFFFFF">

<g transform="translate(0.000000,512.000000) scale(0.100000,-0.100000)"
fill="#000000" stroke="none">
<path d="M1209 2061 l-24 -19 -3 -346 -3 -346 76 0 75 0 0 135 0 135 88 0 c99
0 148 17 200 70 101 101 100 221 -5 322 -61 59 -94 68 -247 68 -117 0 -137 -2
-157 -19z m264 -89 c18 -19 22 -36 25 -100 6 -131 -23 -172 -124 -172 l-44 0
0 151 0 151 60 -4 c45 -3 66 -10 83 -26z"/>
<path d="M1967 1896 c-80 -22 -123 -67 -141 -148 l-6 -28 67 0 c65 1 69 2 88
33 18 29 25 32 76 35 61 3 89 -12 89 -48 0 -30 -27 -48 -78 -55 -146 -19 -197
-41 -233 -97 -16 -27 -19 -46 -17 -100 3 -58 8 -71 32 -97 43 -45 84 -55 199
48 110 7 161 28 211 88 26 30 26 33 26 190 0 218 -11 241 -137 274 -68 18
-112 18 -176 1z m173 -326 c0 -76 -51 -130 -122 -130 -62 0 -93 78 -48 118 16
13 111 43 163 51 4 0 7 -17 7 -39z"/>
<path d="M3620 1901 c-76 -16 -123 -54 -146 -118 -22 -62 -21 -63 56 -63 56 0
70 3 70 15 0 8 9 24 20 35 27 27 119 28 143 2 42 -46 7 -78 -98 -93 -93 -13
-140 -30 -178 -67 -76 -73 -49 -217 50 -258 68 -29 245 -10 328 34 l50 27 3
175 c3 222 -5 250 -83 286 -57 27 -157 38 -215 25z m160 -326 c0 -58 -25 -104
-64 -120 -76 -32 -126 -10 -126 55 0 47 13 58 97 80 95 24 93 25 93 -15z"/>
<path d="M2445 1610 l94 -281 -35 -62 c-20 -34 -45 -77 -56 -96 l-21 -34 79 8
c58 5 85 12 101 27 43 40 97 165 189 440 l93 279 -77 -3 -77 -3 -46 -165 c-25
-91 -49 -178 -53 -195 -8 -32 -3 -48 -102 283 l-25 82 -79 0 -78 0 93 -280z"/>
<path d="M2940 1835 l0 -55 95 0 c52 0 95 -2 95 -5 0 -3 -45 -95 -100 -205
-55 -110 -100 -204 -100 -210 0 -7 70 -9 208 -8 l207 3 3 58 3 57 -97 0 c-73
0 -95 3 -91 13 2 6 41 98 86 204 44 105 81 194 81 197 0 3 -88 6 -195 6 l-195
0 0 -55z"/>
</g>
</svg>
